#!OML:ASF H:\Terrain\Patient Classification 1\Takeo\Monday\TakeoMonday.ASF
:FULLY-SPECIFIED
:DEGREES
2315
root 10.2105 17.756 -0.0616374 -8.9243 -8.32558 0.51417
lowerback 0.579277 0.415454 0.225084
upperback 0.558143 0.553367 0.77121
thorax 0.240853 0.275888 0.660793
lowerneck -8.49706 6.24347 4.61562
upperneck 19.2547 5.46816 12.2474
head 7.12683 4.02765 3.69893
rclavicle 2.15681e-014 -3.57812e-015
rhumerus 40.2023 17.2857 -70.6364
rradius 113.295
rwrist -74.5982
rhand -24.8305 9.18922
rfingers 7.12502
rthumb 1.67522 -20.7839
lclavicle 2.15681e-014 -3.57812e-015
lhumerus -38.5376 17.3702 81.7263
lradius 30.1647
lwrist 37.0324
lhand -23.1743 25.7827
lfingers 7.12502
lthumb 3.2748 55.7373
rfemur 9.33934 2.95902 18.4394
rtibia 15.7008
rfoot -13.2971 -16.2893
rtoes -2.83925
lfemur 8.00284 -0.473261 -22.2935
ltibia 19.3439
lfoot -15.9916 19.4339
ltoes -3.34595
2316
root 10.2072 17.7568 -0.0575379 -8.82875 -8.39234 0.240743
lowerback 0.554055 0.404059 0.523946
upperback 0.59516 0.538244 0.892981
thorax 0.294613 0.269035 0.618373
lowerneck -8.71903 6.25265 4.78494
upperneck 18.3286 5.61821 11.739
head 6.87993 4.0307 3.48775
rclavicle -2.05742e-014 5.96354e-015
rhumerus 39.6916 18.1191 -70.5482
rradius 114.079
rwrist -74.6406
rhand -25.0401 8.96973
rfingers 7.12502
rthumb 1.4728 -21.0049
lclavicle -2.05742e-014 5.96354e-015
lhumerus -38.4339 17.504 81.7998
lradius 29.939
lwrist 37.1421
lhand -22.9878 24.7813
lfingers 7.12502
lthumb 3.4549 54.733
rfemur 9.5239 2.97436 18.7636
rtibia 15.2412
rfoot -13.3095 -16.2744
rtoes -1.75378
lfemur 7.76754 -0.488905 -21.9723
ltibia 19.7287
lfoot -16.3846 19.3447
ltoes -2.51486
2317
root 10.2095 17.7488 -0.0559596 -8.71846 -8.36571 0.00442689
lowerback 0.480369 0.399978 0.884467
upperback 0.58463 0.532544 0.991288
thorax 0.327571 0.267295 0.51754
lowerneck -8.37639 6.1926 4.60139
upperneck 17.0269 5.76828 11.4838
head 6.3911 4.0025 3.37739
rclavicle -1.14798e-014 0
rhumerus 39.0694 18.7134 -70.329
rradius 114.911
rwrist -75.0694
rhand -25.498 8.69147
rfingers 7.12502
rthumb 1.03058 -21.2858
lclavicle -1.14798e-014 0
lhumerus -38.4638 17.4753 81.9544
lradius 29.8295
lwrist 37.432
lhand -23.1987 22.9228
lfingers 7.12502
lthumb 3.25117 52.8778
rfemur 9.64678 2.8951 19.005
rtibia 14.9156
rfoot -13.2103 -16.26
rtoes -1.86747
lfemur 7.57928 -0.512401 -21.7117
ltibia 20.0114
lfoot -16.6928 19.1448
ltoes -1.77882
2318
root 10.2125 17.7397 -0.0548153 -8.66083 -8.22367 -0.192739
lowerback 0.678188 0.43888 1.10472
upperback 0.379569 0.591618 1.16405
thorax 0.00720721 0.296096 0.568023
lowerneck -8.08582 5.9757 4.15371
upperneck 16.1873 5.66762 11.3602
head 6.05932 3.8731 3.35595
rclavicle -6.4605e-015 -3.97569e-015
rhumerus 38.1058 19.3799 -70.1681
rradius 115.829
rwrist -75.2404
rhand -25.8091 7.95312
rfingers 7.12502
rthumb 0.730124 -22.0254
lclavicle -6.4605e-015 -3.97569e-015
lhumerus -38.8669 17.436 82.1523
lradius 29.8745
lwrist 37.3905
lhand -23.4813 21.845
lfingers 7.12502
lthumb 2.97825 51.804
rfemur 9.74648 2.75661 19.1887
rtibia 14.7321
rfoot -12.9733 -16.2981
rtoes -2.50536
lfemur 7.48738 -0.570012 -21.4995
ltibia 20.1849
lfoot -16.7776 18.9583
ltoes -1.97768
2319
root 10.2132 17.7415 -0.0491009 -8.64485 -8.0871 0.0380436
lowerback 0.830936 0.554607 0.921749
upperback 0.10539 0.752032 1.21934
thorax -0.36232 0.375222 0.72261
lowerneck -7.63178 5.6664 3.91387
upperneck 15.3843 5.46342 10.9133
head 5.73583 3.68176 3.19127
rclavicle -9.59136e-015 -1.35174e-014
rhumerus 36.9953 20.0877 -70.2433
rradius 116.742
rwrist -75.1328
rhand -25.8903 7.89341
rfingers 7.12502
rthumb 0.651667 -22.0853
lclavicle -9.59136e-015 -1.35174e-014
lhumerus -39.3852 17.3992 82.3432
lradius 29.8512
lwrist 37.1485
lhand -23.6422 22.0589
lfingers 7.12502
lthumb 2.82289 52.02
rfemur 9.72382 2.67957 18.9025
rtibia 14.7137
rfoot -12.8302 -16.3438
rtoes -3.07992
lfemur 7.40196 -0.668845 -21.7905
ltibia 20.2415
lfoot -16.6541 19.0982
ltoes -3.00613
2320
root 10.213 17.7512 -0.0447961 -8.57888 -8.00434 0.298883
lowerback 0.794489 0.61145 0.684402
upperback 0.0144651 0.826514 1.21544
thorax -0.438672 0.412812 0.850524
lowerneck -7.02575 5.52734 3.73133
upperneck 13.9439 5.52121 10.6096
head 5.17803 3.60279 3.05781
rclavicle 9.24349e-015 0
rhumerus 36.2904 20.9609 -70.4132
rradius 117.501
rwrist -75.0578
rhand -26.2863 8.19381
rfingers 7.12502
rthumb 0.269263 -21.7858
lclavicle 9.24349e-015 0
lhumerus -39.5289 17.5221 82.4158
lradius 29.8588
lwrist 36.7052
lhand -23.7872 22.7113
lfingers 7.12502
lthumb 2.6829 52.6742
rfemur 9.58981 2.63189 18.6068
rtibia 14.8214
rfoot -12.8854 -16.337
rtoes -3.81782
lfemur 7.29218 -0.73539 -22.1023
ltibia 20.1741
lfoot -16.4741 19.288
ltoes -3.66513
